<svg width="264" height="264" viewBox="0 0 264 264" fill="none" xmlns="http://www.w3.org/2000/svg">
<path d="M158.268 163.231C158.268 163.231 162.941 176.801 148.817 174.451C148.817 174.451 150.164 186.806 137.597 183.955C137.597 183.955 140.211 193.987 127.09 192.192C127.09 192.192 132.212 184.615 129.281 178.913C129.281 178.913 126.615 172.709 119.619 174.53C119.619 174.53 119.777 164.657 110.326 167.693C110.326 167.693 111.144 158.426 100.637 160.538C100.637 160.538 100.822 150.401 90.6845 151.113C90.6845 151.113 82.3157 151.694 79.1213 159.218L78.9893 108.741H79.4909H102.696V148.157C102.696 148.157 126.509 146.995 125.163 129.676L141.821 129.333L167.297 151.325C167.297 151.298 171.97 162.518 158.268 163.231Z" fill="#FCFCFC"/>
<path d="M101.535 25.285C100.796 26.0242 100.347 27.0274 100.347 28.1362C100.347 29.9578 101.561 31.5154 103.251 31.9906L102.696 74.8642V108.709H78.9893L79.0685 94.2682L79.3853 25.1002C79.3853 25.1002 78.6725 17.4178 87.9389 16.5466H103.462L103.356 24.2026C102.644 24.4138 102.036 24.7834 101.535 25.285Z" fill="#FCFCFC"/>
<path d="M167.613 109.164V144.144L145.147 123.658L120.832 124.001C121.149 143.141 107.184 141.821 107.184 141.821V109.164H167.613Z" fill="#FF4436"/>
<path d="M95.0097 170.276C98.979 166.306 99.681 160.573 96.5778 157.47C93.4746 154.367 87.7412 155.069 83.7719 159.038C79.8027 163.007 79.1006 168.741 82.2039 171.844C85.3071 174.947 91.0405 174.245 95.0097 170.276Z" fill="#FF4436"/>
<path d="M104.134 178.298C108.103 174.329 108.805 168.595 105.702 165.492C102.599 162.389 96.8652 163.091 92.8959 167.06C88.9267 171.029 88.2246 176.763 91.3279 179.866C94.4311 182.969 100.164 182.267 104.134 178.298Z" fill="#FF4436"/>
<path d="M113.253 185.013C117.222 181.044 117.924 175.311 114.821 172.207C111.718 169.104 105.984 169.806 102.015 173.775C98.0458 177.745 97.3438 183.478 100.447 186.581C103.55 189.685 109.284 188.983 113.253 185.013Z" fill="#FF4436"/>
<path d="M122.572 192.378C126.541 188.409 127.244 182.675 124.14 179.572C121.037 176.469 115.304 177.171 111.334 181.14C107.365 185.109 106.663 190.843 109.766 193.946C112.87 197.049 118.603 196.347 122.572 192.378Z" fill="#FF4436"/>
<path d="M167.64 25.1064V90.3407V94.9871V109.19H107.184V71.1743L107.5 32.1552H142.665C143.774 32.1552 144.777 31.7064 145.516 30.9672C146.256 30.228 146.704 29.2248 146.704 28.116C146.704 25.8984 144.883 24.0768 142.665 24.0768H107.553L107.606 16.5264H159.06C159.086 16.5528 165.976 16.0512 167.64 25.1064Z" fill="#FF4436"/>
<path d="M90.3673 243.276C90.6049 242.827 90.8689 242.616 91.1329 242.616C91.3969 242.616 91.6345 242.695 91.8193 242.853C92.0569 243.038 92.2945 243.329 92.5057 243.672C92.1889 244.358 91.7401 244.992 91.1593 245.573C90.6577 246.048 89.9977 246.497 89.1529 246.866C88.3081 247.236 87.2521 247.447 85.9849 247.447C84.7705 247.447 83.4769 247.209 82.1305 246.761C80.7841 246.312 79.5433 245.573 78.4081 244.569C77.2729 243.566 76.3489 242.273 75.6361 240.689C74.8969 239.105 74.5273 237.177 74.5273 234.933C74.5273 233.376 74.7121 231.818 75.1081 230.261C75.4777 228.703 75.9793 227.172 76.5601 225.693C77.1409 224.215 77.7745 222.789 78.4873 221.443C79.1737 220.07 79.8601 218.803 80.4937 217.615V217.641C81.2065 216.321 81.8137 215.133 82.3417 214.13C82.8433 213.127 83.1073 212.361 83.1073 211.833C83.1073 211.437 82.8433 211.411 82.3417 211.728C81.8401 212.045 81.1537 212.599 80.3353 213.391C79.5169 214.183 78.5929 215.133 77.5633 216.269C76.5337 217.404 75.4777 218.565 74.4217 219.78C73.3657 220.994 72.3625 222.182 71.4121 223.37C70.4617 224.558 69.6433 225.588 68.9569 226.512L68.3761 227.225L68.3233 227.33C67.7689 228.439 67.2673 229.548 66.7657 230.63C66.2641 231.713 65.8417 232.716 65.4457 233.613C65.0761 234.511 64.7593 235.303 64.5481 235.989C64.3369 236.676 64.2313 237.177 64.2313 237.521C64.2313 237.943 64.2577 238.286 64.2841 238.524C64.3369 238.788 64.3897 238.999 64.4425 239.157C64.4953 239.316 64.5745 239.421 64.6801 239.527C64.7593 239.606 64.8385 239.685 64.9177 239.712C65.1025 239.87 65.2345 240.029 65.3401 240.161C65.4457 240.319 65.4985 240.53 65.4985 240.847C65.4985 240.979 65.3665 241.058 65.0761 241.137C64.7857 241.19 64.4425 241.19 63.9937 241.111C63.5449 241.032 63.0961 240.9 62.5945 240.689C62.0929 240.477 61.6177 240.187 61.1953 239.765C60.7465 239.369 60.4033 238.841 60.1129 238.233C59.8225 237.626 59.6905 236.887 59.6905 236.016C59.6905 235.197 59.9017 234.089 60.3241 232.769C60.7465 231.422 61.3009 229.97 61.9873 228.386C62.6737 226.802 63.4129 225.139 64.2313 223.423C65.0497 221.707 65.8417 220.044 66.6337 218.433C67.1617 217.325 67.6633 216.242 68.1649 215.239C68.6665 214.236 69.0889 213.312 69.4585 212.493C69.8281 211.675 70.1185 210.962 70.3561 210.381C70.5673 209.801 70.6729 209.378 70.6729 209.141C70.6729 209.009 70.6729 208.929 70.6993 208.903C70.3297 208.929 69.8017 209.22 69.0889 209.774C68.4025 210.328 67.6105 211.068 66.7129 211.965C65.8153 212.863 64.8913 213.893 63.8881 215.028C62.8849 216.163 61.8817 217.351 60.9313 218.513C59.9545 219.701 59.0305 220.836 58.1593 221.945C57.2617 223.053 56.5225 224.004 55.8889 224.849C55.2553 226.142 54.6481 227.409 54.0409 228.65C53.4337 229.891 52.9321 231.079 52.4569 232.161C52.0081 233.27 51.6385 234.273 51.3481 235.171C51.0577 236.069 50.9257 236.808 50.9257 237.362C50.9257 238.049 50.9521 238.55 51.0313 238.814C51.1105 239.078 51.1897 239.289 51.2689 239.448C51.3481 239.606 51.4273 239.765 51.5065 239.923C51.5857 240.081 51.6121 240.293 51.6121 240.557C51.6121 241.005 51.4801 241.322 51.2425 241.533C50.9785 241.745 50.6353 241.85 50.2129 241.85C49.8433 241.85 49.4209 241.718 48.9457 241.481C48.4705 241.217 48.0217 240.847 47.5993 240.345C47.1769 239.844 46.8073 239.184 46.5169 238.392C46.2265 237.6 46.0681 236.676 46.0681 235.567C46.0681 234.96 46.2265 234.168 46.5433 233.165C46.8601 232.188 47.2825 231.053 47.7841 229.812C48.2857 228.545 48.8929 227.198 49.5793 225.746C50.2657 224.294 50.9521 222.789 51.6649 221.232C52.4833 219.516 53.2753 217.826 54.0673 216.11C54.8593 214.394 55.5457 212.784 56.1793 211.253C56.8129 209.721 57.3145 208.322 57.7105 207.055C58.1065 205.788 58.2913 204.758 58.2913 203.94C58.2913 203.095 58.0273 202.672 57.4729 202.672C56.4169 202.672 55.3081 202.989 54.1201 203.623C52.9321 204.256 51.7705 205.101 50.6089 206.131C49.4473 207.16 48.3121 208.348 47.2561 209.695C46.1737 211.041 45.2497 212.414 44.4313 213.813C43.6129 215.213 42.9529 216.585 42.4777 217.932C41.9761 219.278 41.7385 220.493 41.7385 221.549C41.7385 222.605 41.7913 223.476 41.8969 224.189C42.0025 224.901 42.1081 225.482 42.2665 225.957C42.4249 226.433 42.5833 226.802 42.7153 227.066C42.8737 227.33 43.0057 227.541 43.1377 227.7C43.2433 227.885 43.3489 228.043 43.4545 228.175C43.5601 228.307 43.6129 228.518 43.6129 228.756C43.6129 229.02 43.4809 229.231 43.1905 229.416C42.9265 229.601 42.5305 229.706 42.0553 229.706C41.5801 229.706 40.9993 229.574 40.3129 229.337C39.6265 229.073 38.9665 228.624 38.3329 227.937C37.6993 227.251 37.1713 226.327 36.7225 225.165C36.2737 223.977 36.0625 222.473 36.0625 220.598C36.0625 219.041 36.3529 217.483 36.9601 215.873C37.5673 214.289 38.3857 212.731 39.4417 211.279C40.4977 209.8 41.7385 208.428 43.1641 207.108C44.5897 205.814 46.1473 204.679 47.7841 203.728C49.4209 202.778 51.1633 202.012 52.9849 201.458C54.8065 200.904 56.6017 200.613 58.4233 200.613C59.2417 200.613 59.9017 200.745 60.4825 200.983C61.0369 201.247 61.4857 201.564 61.8553 201.96C62.1985 202.356 62.4625 202.778 62.6473 203.28C62.8321 203.755 62.9641 204.23 63.0169 204.705C63.0697 205.18 63.1225 205.603 63.1225 205.999C63.1225 206.395 63.1489 206.685 63.1489 206.896C63.1489 207.847 62.9377 208.982 62.4889 210.381C62.0401 211.754 61.4593 213.259 60.7729 214.896C61.8289 213.681 62.8849 212.493 63.9937 211.358C65.0761 210.223 66.1585 209.22 67.2145 208.349C68.2705 207.477 69.3001 206.764 70.2769 206.263C71.2537 205.735 72.1777 205.471 72.9961 205.471C74.0785 205.471 74.9233 205.788 75.5305 206.448C76.1377 207.108 76.4281 208.164 76.4281 209.669C76.4281 209.933 76.3489 210.302 76.1905 210.804C76.0321 211.305 75.7945 211.913 75.5041 212.599C75.2137 213.285 74.8705 214.051 74.4745 214.922C74.0785 215.767 73.6561 216.665 73.2073 217.615C74.2369 216.453 75.2665 215.371 76.3225 214.315C77.3785 213.285 78.3817 212.361 79.3585 211.596C80.3353 210.83 81.2593 210.197 82.1041 209.748C82.9753 209.299 83.7145 209.061 84.3481 209.061C85.1137 209.061 85.7473 209.193 86.2753 209.431C86.7769 209.668 87.1993 209.985 87.5161 210.408C87.8329 210.804 88.0441 211.279 88.1761 211.807C88.3081 212.335 88.3609 212.863 88.3609 213.417C88.3609 214.236 88.0441 215.292 87.4105 216.533C86.7769 217.773 86.0113 219.146 85.1401 220.651C84.5065 221.76 83.8465 222.948 83.1865 224.215C82.5001 225.482 81.8929 226.776 81.3121 228.122C80.7313 229.469 80.2825 230.815 79.9129 232.161C79.5433 233.508 79.3585 234.854 79.3585 236.148C79.3585 237.943 79.6225 239.395 80.1769 240.53C80.7313 241.665 81.3913 242.563 82.1569 243.223C82.9225 243.883 83.7409 244.332 84.5857 244.596C85.4305 244.86 86.1697 244.965 86.7769 244.965C87.9649 244.965 88.8361 244.781 89.3905 244.437C89.7865 243.989 90.1561 243.645 90.3673 243.276Z" fill="#FCFCFC"/>
<path d="M106.286 225.166C106.497 224.77 106.761 224.505 107.078 224.4C107.395 224.268 107.659 224.268 107.87 224.374C108.081 224.479 108.266 224.664 108.372 224.954C108.477 225.245 108.451 225.588 108.266 226.01L107.976 226.67C107.685 227.251 107.342 227.99 106.92 228.888C106.497 229.786 105.996 230.71 105.468 231.713C104.913 232.716 104.333 233.693 103.699 234.696C103.065 235.699 102.405 236.597 101.745 237.389C101.059 238.181 100.373 238.841 99.6598 239.316C98.947 239.818 98.2342 240.055 97.5478 240.055C97.099 240.055 96.6502 239.923 96.2014 239.633C95.7526 239.342 95.383 238.973 95.0398 238.524C94.6966 238.075 94.4326 237.6 94.195 237.072C93.9838 236.57 93.8782 236.069 93.8782 235.62C93.8782 235.25 93.931 234.775 94.063 234.221C93.4822 234.986 92.9278 235.726 92.347 236.412C91.7662 237.098 91.2118 237.732 90.6838 238.286C90.1558 238.841 89.6542 239.263 89.179 239.58C88.7038 239.897 88.3078 240.055 87.991 240.055C87.4894 240.055 87.0142 239.897 86.539 239.58C86.0902 239.263 85.6942 238.867 85.351 238.418C85.0078 237.97 84.7438 237.468 84.5326 236.94C84.3214 236.412 84.2158 235.937 84.2158 235.541C84.2158 234.96 84.295 234.326 84.4798 233.666C84.6646 233.006 84.9022 232.32 85.1926 231.607C85.483 230.894 85.7998 230.182 86.1694 229.469C86.5126 228.756 86.8822 228.043 87.2518 227.357C87.5686 226.776 87.859 226.221 88.1494 225.667C88.4398 225.113 88.6774 224.585 88.915 224.083C89.1262 223.581 89.311 223.106 89.443 222.684C89.575 222.261 89.6278 221.892 89.6278 221.549C89.6278 221.205 89.8654 221.021 90.3406 220.994C90.8158 220.968 91.3438 221.1 91.951 221.364C92.5318 221.628 93.0862 221.997 93.5614 222.473C94.0366 222.948 94.2742 223.529 94.2742 224.189C94.2742 224.453 94.195 224.822 94.0366 225.271C93.8782 225.72 93.667 226.248 93.403 226.855C93.139 227.436 92.8222 228.07 92.479 228.756C92.1358 229.442 91.7662 230.129 91.3966 230.842C90.9478 231.686 90.5254 232.531 90.0766 233.376C89.6278 234.194 89.2582 234.96 88.9414 235.594C88.6246 236.254 88.3606 236.782 88.1758 237.178C87.991 237.574 87.9382 237.785 88.0174 237.785C88.1494 237.785 88.387 237.6 88.7566 237.257C89.1262 236.914 89.5486 236.438 90.0238 235.858C90.499 235.277 91.027 234.617 91.6078 233.851C92.1886 233.086 92.743 232.32 93.3502 231.528C94.6966 229.706 96.2014 227.621 97.8382 225.271C98.2606 224.347 98.6038 223.555 98.9206 222.869C99.2374 222.182 99.3694 221.76 99.3694 221.549C99.3694 221.205 99.5806 221.047 100.029 221.073C100.478 221.1 100.953 221.258 101.481 221.549C102.009 221.839 102.485 222.209 102.933 222.657C103.382 223.106 103.593 223.581 103.593 224.03C103.593 224.347 103.409 224.875 103.065 225.694C102.696 226.486 102.273 227.41 101.772 228.466C101.402 229.231 101.006 230.023 100.637 230.868C100.241 231.713 99.871 232.505 99.5542 233.297C99.2374 234.062 98.947 234.802 98.7358 235.462C98.5246 236.122 98.419 236.65 98.419 237.046C98.419 237.23 98.4454 237.31 98.4718 237.31C98.8414 237.31 99.2638 237.098 99.7126 236.65C100.161 236.201 100.637 235.646 101.112 234.96C101.613 234.274 102.089 233.508 102.59 232.663C103.092 231.818 103.567 230.947 103.989 230.102C104.438 229.258 104.834 228.439 105.177 227.7C105.521 226.961 105.837 226.327 106.075 225.852L106.365 225.218V225.166H106.286Z" fill="#FCFCFC"/>
<path d="M122.893 218.143C122.893 218.328 122.708 218.566 122.365 218.909C122.022 219.252 121.441 219.569 120.702 219.886C119.936 220.202 118.986 220.493 117.798 220.73C116.61 220.968 115.21 221.1 113.6 221.1C113.415 221.549 113.204 221.971 112.993 222.42C112.782 222.869 112.57 223.291 112.359 223.74C111.778 224.981 111.171 226.248 110.59 227.515C110.01 228.782 109.482 229.997 109.006 231.132C108.531 232.267 108.162 233.297 107.871 234.247C107.581 235.198 107.422 235.963 107.422 236.544C107.422 237.072 107.581 237.336 107.924 237.336C108.531 237.336 109.191 237.072 109.904 236.571C110.617 236.069 111.33 235.435 112.042 234.643C112.755 233.851 113.468 232.98 114.181 232.03C114.894 231.079 115.527 230.155 116.108 229.258C116.689 228.36 117.19 227.542 117.586 226.829C118.009 226.09 118.299 225.562 118.484 225.218C118.563 225.06 118.748 224.981 118.986 224.981C119.223 224.981 119.461 225.034 119.725 225.139C119.989 225.245 120.174 225.377 120.358 225.535C120.517 225.694 120.57 225.878 120.517 226.037C120.306 226.486 119.962 227.119 119.487 227.99C119.012 228.862 118.431 229.812 117.771 230.868C117.085 231.924 116.346 232.98 115.501 234.063C114.682 235.145 113.785 236.122 112.887 237.019C111.963 237.917 111.013 238.656 110.062 239.211C109.086 239.791 108.135 240.055 107.158 240.055C106.762 240.055 106.314 239.95 105.786 239.712C105.284 239.475 104.782 239.158 104.334 238.709C103.885 238.26 103.489 237.732 103.198 237.099C102.882 236.465 102.75 235.726 102.75 234.907C102.75 234.432 102.882 233.746 103.172 232.848C103.462 231.951 103.832 230.947 104.307 229.812C104.782 228.677 105.31 227.462 105.918 226.169C106.525 224.875 107.132 223.555 107.739 222.262L108.426 220.783C107.475 220.625 106.604 220.44 105.865 220.202C105.126 219.965 104.466 219.727 103.964 219.49C103.462 219.252 103.066 219.014 102.776 218.777C102.512 218.539 102.354 218.354 102.354 218.249C102.354 217.932 102.406 217.721 102.512 217.589C102.618 217.457 102.75 217.351 102.961 217.325C103.146 217.298 103.41 217.298 103.726 217.378C104.043 217.43 104.413 217.51 104.835 217.615C105.337 217.721 105.97 217.853 106.762 217.985C107.554 218.117 108.478 218.249 109.534 218.354C110.326 216.638 110.96 215.134 111.488 213.814C111.99 212.494 112.254 211.57 112.254 211.015C112.254 210.672 112.465 210.514 112.914 210.566C113.362 210.619 113.838 210.778 114.366 211.068C114.894 211.358 115.395 211.728 115.818 212.177C116.266 212.626 116.478 213.101 116.478 213.55C116.478 214.051 116.319 214.738 116.029 215.609C115.738 216.48 115.342 217.457 114.841 218.566C116.134 218.513 117.27 218.407 118.299 218.249C119.302 218.064 120.147 217.906 120.781 217.721L120.754 217.747C121.441 217.562 121.995 217.51 122.391 217.536C122.787 217.562 122.893 217.747 122.893 218.143Z" fill="#FCFCFC"/>
<path d="M136.065 225.192C136.145 225.007 136.329 224.901 136.567 224.901C136.831 224.901 137.069 224.954 137.28 225.086C137.517 225.218 137.702 225.376 137.861 225.588C138.019 225.772 138.045 225.984 137.966 226.169C137.808 226.485 137.596 226.881 137.306 227.409C137.016 227.937 136.646 228.518 136.197 229.152C135.749 229.785 135.247 230.445 134.666 231.105C134.085 231.765 133.452 232.399 132.765 232.98C132.079 233.561 131.34 234.062 130.521 234.485C129.703 234.907 128.858 235.197 127.934 235.329C126.957 236.702 125.848 237.838 124.581 238.709C123.34 239.58 122.047 240.029 120.727 240.029C120.014 240.029 119.301 239.897 118.615 239.606C117.928 239.316 117.321 238.894 116.767 238.339C116.239 237.785 115.79 237.098 115.473 236.254C115.156 235.435 114.972 234.458 114.972 233.349C114.972 232.293 115.183 231.237 115.579 230.129C115.975 229.02 116.45 228.017 116.978 227.093C117.506 226.169 118.06 225.429 118.615 224.822C119.169 224.241 119.592 223.924 119.908 223.924C120.12 223.924 120.357 223.951 120.621 223.977C120.885 224.03 121.123 224.083 121.387 224.136C121.783 223.608 122.205 223.132 122.654 222.657C123.103 222.208 123.578 221.812 124.106 221.469C124.608 221.126 125.162 220.862 125.69 220.651C126.244 220.44 126.799 220.334 127.353 220.334C128.172 220.334 128.858 220.44 129.412 220.624C129.94 220.809 130.363 221.073 130.68 221.416C130.996 221.76 131.208 222.156 131.34 222.631C131.472 223.106 131.524 223.608 131.524 224.162C131.524 227.013 130.891 229.759 129.597 232.399C130.389 231.95 131.128 231.396 131.841 230.736C132.554 230.049 133.188 229.363 133.769 228.677C134.349 227.99 134.825 227.304 135.221 226.67C135.617 226.01 135.881 225.535 136.065 225.192ZM120.832 237.494C121.598 237.494 122.311 237.283 122.971 236.887C123.631 236.491 124.264 235.937 124.845 235.224C124.027 235.013 123.235 234.669 122.496 234.221C121.756 233.772 121.123 233.244 120.621 232.663C120.331 233.349 120.093 233.983 119.908 234.617C119.724 235.25 119.618 235.805 119.618 236.28C119.618 236.65 119.697 236.94 119.882 237.151C120.093 237.389 120.384 237.494 120.832 237.494ZM124.634 231.29C124.634 231.792 124.766 232.214 125.004 232.557C125.241 232.901 125.69 233.138 126.324 233.217C126.772 232.478 127.142 231.686 127.512 230.894C127.855 230.076 128.145 229.284 128.409 228.518C128.647 227.753 128.832 226.987 128.964 226.301C129.096 225.588 129.148 224.98 129.148 224.452C129.148 223.581 129.043 223.132 128.832 223.132C128.62 223.132 128.277 223.423 127.828 223.977C127.38 224.532 126.904 225.218 126.429 226.063C125.954 226.881 125.558 227.779 125.188 228.729C124.792 229.653 124.634 230.498 124.634 231.29Z" fill="#FCFCFC"/>
<path d="M168.194 204.494C171.045 204.494 173.447 204.758 175.348 205.286C177.249 205.814 178.78 206.474 179.915 207.213C181.051 207.953 181.869 208.745 182.344 209.563C182.819 210.381 183.057 211.094 183.057 211.675C183.057 212.256 182.872 212.757 182.529 213.18C182.159 213.629 181.684 213.84 181.103 213.84C180.655 213.84 180.338 213.787 180.153 213.655C179.968 213.523 179.836 213.365 179.783 213.18C179.731 212.995 179.731 212.757 179.783 212.546C179.836 212.309 179.889 212.071 179.968 211.833C180.021 211.649 180.021 211.543 180.021 211.517C180.021 211.2 179.863 210.857 179.572 210.513C179.255 210.17 178.833 209.88 178.279 209.616C177.724 209.352 177.038 209.141 176.272 208.982C175.48 208.824 174.609 208.745 173.606 208.745C169.567 208.745 165.791 209.035 162.28 209.589C158.769 210.144 155.522 210.83 152.539 211.675C149.555 212.493 146.836 213.391 144.407 214.341C141.979 215.292 139.814 216.137 137.966 216.929C136.25 217.668 134.771 218.301 133.451 218.777C132.158 219.278 131.075 219.516 130.257 219.516C129.755 219.516 129.254 219.41 128.779 219.173C128.303 218.935 127.855 218.671 127.485 218.328C127.115 218.011 126.799 217.641 126.561 217.245C126.323 216.849 126.191 216.48 126.191 216.163C126.191 215.688 126.376 215.292 126.719 215.001C127.063 214.711 127.617 214.553 128.383 214.553C128.699 214.553 129.359 214.368 130.415 214.025C131.471 213.681 132.739 213.206 134.243 212.652C135.616 212.15 137.147 211.596 138.837 211.015C140.527 210.434 142.322 209.827 144.223 209.22C146.123 208.613 148.103 208.032 150.136 207.451C152.169 206.87 154.228 206.369 156.287 205.946C158.347 205.497 160.379 205.154 162.386 204.89C164.419 204.626 166.346 204.494 168.194 204.494ZM155.627 219.489C156.023 219.489 156.367 219.569 156.631 219.727C156.895 219.885 157.132 220.07 157.317 220.308C157.502 220.545 157.634 220.809 157.739 221.126C157.819 221.443 157.871 221.733 157.871 222.05C157.871 222.605 157.739 223.08 157.502 223.476C157.238 223.872 156.895 224.083 156.393 224.083C154.888 224.083 153.41 224.162 151.958 224.347C150.506 224.532 149.133 224.743 147.813 225.007C147.127 226.221 146.414 227.594 145.622 229.073C144.83 230.551 144.091 231.977 143.431 233.376C142.744 234.749 142.19 235.989 141.741 237.098C141.292 238.207 141.081 238.999 141.081 239.474C141.081 240.398 141.16 241.164 141.345 241.771C141.53 242.405 141.688 242.88 141.873 243.249C142.163 243.936 142.269 244.437 142.243 244.728C142.19 245.018 141.794 245.15 141.002 245.15C140.606 245.15 140.131 244.992 139.603 244.649C139.048 244.332 138.547 243.857 138.045 243.276C137.543 242.695 137.121 241.982 136.778 241.164C136.435 240.345 136.25 239.448 136.25 238.471C136.25 238.075 136.382 237.468 136.672 236.597C136.963 235.752 137.306 234.775 137.755 233.719C138.203 232.637 138.679 231.528 139.233 230.366C139.787 229.205 140.315 228.122 140.817 227.093C140.5 227.198 140.157 227.33 139.84 227.462C139.523 227.594 139.233 227.7 138.995 227.779C138.573 227.964 138.256 228.069 138.019 228.149C137.781 228.228 137.57 228.254 137.385 228.254C136.883 228.254 136.54 228.122 136.382 227.885C136.223 227.647 136.144 227.357 136.144 227.04C136.144 226.723 136.329 226.353 136.672 225.984C137.042 225.614 137.517 225.218 138.151 224.796C138.784 224.4 139.523 223.977 140.395 223.581C141.266 223.185 142.19 222.789 143.167 222.42C143.483 221.786 143.8 221.179 144.117 220.598C144.434 220.017 144.698 219.516 144.935 219.067V219.093C145.569 217.905 146.044 217.008 146.361 216.401C146.678 215.767 146.836 215.345 146.836 215.107C146.836 214.685 147.074 214.5 147.549 214.526C148.024 214.553 148.552 214.711 149.133 214.975C149.714 215.265 150.242 215.609 150.717 216.057C151.192 216.506 151.43 216.929 151.43 217.325V217.483C151.43 217.668 151.43 217.853 151.403 217.985C151.403 218.117 151.377 218.275 151.324 218.433C151.271 218.592 151.192 218.803 151.06 219.067C150.928 219.331 150.743 219.674 150.532 220.123C152.459 219.727 154.149 219.489 155.627 219.489Z" fill="#FF4436"/>
<path d="M176.379 225.192C176.458 225.007 176.643 224.901 176.88 224.901C177.144 224.901 177.382 224.954 177.593 225.086C177.831 225.218 178.016 225.376 178.174 225.588C178.332 225.772 178.359 225.984 178.28 226.169C178.121 226.485 177.91 226.881 177.62 227.409C177.329 227.937 176.96 228.518 176.511 229.152C176.062 229.785 175.56 230.445 174.98 231.105C174.399 231.765 173.765 232.399 173.079 232.98C172.392 233.561 171.653 234.062 170.835 234.485C170.016 234.907 169.172 235.197 168.248 235.329C167.271 236.702 166.162 237.838 164.895 238.709C163.654 239.58 162.36 240.029 161.04 240.029C160.328 240.029 159.615 239.897 158.928 239.606C158.242 239.316 157.635 238.894 157.08 238.339C156.552 237.785 156.104 237.098 155.787 236.254C155.47 235.435 155.285 234.458 155.285 233.349C155.285 232.293 155.496 231.237 155.892 230.129C156.288 229.02 156.764 228.017 157.292 227.093C157.82 226.169 158.374 225.429 158.928 224.822C159.483 224.241 159.905 223.924 160.222 223.924C160.433 223.924 160.671 223.951 160.935 223.977C161.199 224.03 161.436 224.083 161.7 224.136C162.096 223.608 162.519 223.132 162.968 222.657C163.416 222.208 163.892 221.812 164.42 221.469C164.921 221.126 165.476 220.862 166.004 220.651C166.558 220.44 167.112 220.334 167.667 220.334C168.485 220.334 169.172 220.44 169.726 220.624C170.254 220.809 170.676 221.073 170.993 221.416C171.31 221.76 171.521 222.156 171.653 222.631C171.785 223.106 171.838 223.608 171.838 224.162C171.838 227.013 171.204 229.759 169.911 232.399C170.703 231.95 171.442 231.396 172.155 230.736C172.868 230.049 173.501 229.363 174.082 228.677C174.663 227.99 175.138 227.304 175.534 226.67C175.904 226.01 176.194 225.535 176.379 225.192ZM161.12 237.494C161.885 237.494 162.598 237.283 163.258 236.887C163.918 236.491 164.552 235.937 165.132 235.224C164.314 235.013 163.522 234.669 162.783 234.221C162.044 233.772 161.41 233.244 160.908 232.663C160.618 233.349 160.38 233.983 160.196 234.617C160.011 235.25 159.905 235.805 159.905 236.28C159.905 236.65 159.984 236.94 160.169 237.151C160.38 237.389 160.697 237.494 161.12 237.494ZM164.921 231.29C164.921 231.792 165.053 232.214 165.291 232.557C165.528 232.901 165.977 233.138 166.611 233.217C167.06 232.478 167.429 231.686 167.799 230.894C168.142 230.076 168.432 229.284 168.696 228.518C168.934 227.753 169.119 226.987 169.251 226.301C169.383 225.588 169.436 224.98 169.436 224.452C169.436 223.581 169.33 223.132 169.119 223.132C168.908 223.132 168.564 223.423 168.116 223.977C167.667 224.532 167.192 225.218 166.716 226.063C166.241 226.881 165.845 227.779 165.476 228.729C165.106 229.653 164.921 230.498 164.921 231.29Z" fill="#FF4436"/>
<path d="M193.565 225.166C193.776 224.77 194.04 224.506 194.357 224.4C194.674 224.268 194.938 224.268 195.175 224.374C195.413 224.479 195.598 224.664 195.703 224.954C195.809 225.245 195.756 225.588 195.571 226.01C195.36 226.459 195.043 227.093 194.621 227.964C194.199 228.835 193.723 229.786 193.169 230.842C192.615 231.898 192.007 232.954 191.321 234.036C190.635 235.118 189.948 236.095 189.209 236.993C188.47 237.89 187.731 238.63 186.991 239.184C186.226 239.765 185.513 240.029 184.8 240.029C183.718 240.029 182.847 239.633 182.134 238.841C181.447 238.049 181.078 236.966 181.078 235.62C181.078 235.171 181.183 234.59 181.368 233.93C181.553 233.27 181.79 232.531 182.107 231.739C182.424 230.947 182.767 230.129 183.137 229.284C183.507 228.439 183.903 227.594 184.272 226.802C183.559 227.647 182.794 228.571 182.002 229.522C181.21 230.472 180.444 231.422 179.731 232.346C179.018 233.27 178.385 234.142 177.857 234.96C177.303 235.778 176.906 236.465 176.642 237.019C176.616 237.125 176.616 237.23 176.59 237.31C176.59 237.389 176.563 237.468 176.563 237.494L176.616 237.758C176.642 237.811 176.642 237.89 176.642 237.996C176.642 238.075 176.643 238.154 176.669 238.234V238.207C176.722 238.471 176.801 238.709 176.827 238.92C176.88 239.131 176.88 239.342 176.827 239.501C176.774 239.659 176.669 239.791 176.51 239.897C176.326 240.002 176.062 240.055 175.718 240.055C175.296 240.055 174.874 239.95 174.451 239.738C174.002 239.527 173.606 239.237 173.263 238.841C172.894 238.471 172.603 237.996 172.366 237.468C172.128 236.94 171.996 236.359 171.996 235.699C171.996 235.118 172.075 234.485 172.26 233.825C172.445 233.165 172.656 232.478 172.946 231.766C173.237 231.053 173.554 230.34 173.923 229.627C174.293 228.914 174.636 228.175 175.032 227.462C175.639 226.274 176.194 225.139 176.669 224.11C177.144 223.08 177.382 222.235 177.382 221.575C177.382 221.232 177.619 221.047 178.094 221.021C178.57 220.995 179.098 221.127 179.705 221.391C180.286 221.655 180.84 222.024 181.315 222.526C181.79 223.027 182.028 223.582 182.028 224.242C182.028 224.558 181.949 224.928 181.79 225.377C181.632 225.826 181.421 226.354 181.157 226.908C181.843 226.09 182.503 225.324 183.163 224.558C183.823 223.793 184.457 223.106 185.038 222.499C185.619 221.892 186.12 221.417 186.569 221.047C187.018 220.678 187.335 220.493 187.519 220.493C187.572 220.493 187.625 220.493 187.704 220.493C187.783 220.493 187.889 220.519 187.968 220.546C188.232 220.625 188.523 220.783 188.866 221.021C189.183 221.259 189.499 221.523 189.79 221.839C190.08 222.156 190.318 222.499 190.502 222.895C190.687 223.265 190.793 223.661 190.793 224.057C190.793 224.374 190.608 224.902 190.265 225.72C189.895 226.512 189.473 227.436 188.971 228.492C188.602 229.258 188.206 230.05 187.81 230.894C187.414 231.739 187.044 232.531 186.701 233.323C186.384 234.089 186.094 234.828 185.882 235.488C185.671 236.148 185.566 236.676 185.566 237.072C185.566 237.257 185.592 237.336 185.618 237.336C185.935 237.336 186.331 237.098 186.806 236.65C187.282 236.201 187.757 235.594 188.285 234.854C188.813 234.115 189.367 233.297 189.895 232.373C190.45 231.475 190.951 230.578 191.427 229.68C191.902 228.782 192.351 227.938 192.72 227.172C193.09 226.406 193.38 225.773 193.591 225.298V225.166H193.565Z" fill="#FF4436"/>
<path d="M209.141 225.165C209.22 224.981 209.405 224.901 209.642 224.901C209.906 224.901 210.144 224.954 210.382 225.06C210.619 225.165 210.83 225.297 210.989 225.482C211.147 225.667 211.2 225.825 211.147 226.01C210.936 226.459 210.593 227.093 210.144 227.964C209.695 228.835 209.141 229.785 208.481 230.815C207.821 231.845 207.055 232.927 206.21 234.009C205.366 235.092 204.415 236.095 203.386 236.993C202.356 237.89 201.247 238.629 200.086 239.184C198.898 239.765 197.683 240.029 196.39 240.029C195.307 240.029 194.357 239.791 193.565 239.342C192.773 238.893 192.113 238.313 191.611 237.6C191.083 236.913 190.687 236.148 190.45 235.303C190.186 234.485 190.08 233.666 190.08 232.901C190.08 231.369 190.45 229.865 191.189 228.36C191.928 226.855 192.905 225.535 194.119 224.347C195.334 223.159 196.706 222.209 198.211 221.469C199.716 220.73 201.274 220.361 202.858 220.361C203.887 220.361 204.626 220.598 205.075 221.047C205.524 221.496 205.735 222.129 205.735 222.895C205.735 223.476 205.577 224.109 205.286 224.849C204.996 225.588 204.6 226.327 204.098 227.119C203.597 227.911 203.016 228.677 202.356 229.442C201.696 230.208 201.01 230.894 200.27 231.528C199.531 232.161 198.792 232.689 198.026 233.138C197.261 233.587 196.522 233.877 195.835 234.036C195.756 234.458 195.703 234.854 195.703 235.277C195.703 235.778 195.782 236.201 195.967 236.517C196.152 236.834 196.442 236.993 196.865 236.993C197.815 236.993 198.766 236.755 199.716 236.253C200.666 235.752 201.564 235.145 202.409 234.379C203.254 233.613 204.072 232.769 204.811 231.845C205.577 230.921 206.237 229.997 206.818 229.125C207.398 228.228 207.9 227.436 208.296 226.723C208.666 226.037 208.956 225.509 209.141 225.165ZM203.227 222.71C202.699 222.71 202.118 222.974 201.511 223.476C200.878 223.977 200.27 224.664 199.69 225.482C199.082 226.301 198.528 227.225 197.974 228.254C197.446 229.284 196.997 230.287 196.601 231.29C197.393 230.894 198.185 230.34 199.003 229.574C199.822 228.835 200.534 228.043 201.194 227.225C201.854 226.406 202.382 225.588 202.778 224.796C203.174 224.004 203.386 223.37 203.386 222.895C203.386 222.763 203.333 222.71 203.227 222.71Z" fill="#FF4436"/>
</svg>
